<svg version="1.1" id="Layer_1" xmlns="http://www.w3.org/2000/svg" xmlns:xlink="http://www.w3.org/1999/xlink" x="0px" y="0px"
	 width="100%" viewBox="0 0 1024 1024" enable-background="new 0 0 1024 1024" xml:space="preserve">
<path fill="#000000" opacity="1.000000" stroke="none" 
	d="
M913.640259,354.503998 
	C922.437683,350.765381 931.351379,351.322083 940.112610,351.749237 
	C947.794617,352.123749 952.359009,357.315826 953.392090,364.869507 
	C954.847839,375.513733 950.869873,384.866852 946.390869,393.955444 
	C938.612549,409.739136 928.037354,423.575958 915.987793,436.381439 
	C909.244141,443.548248 903.642212,446.680542 894.655945,446.589172 
	C892.712891,438.040497 896.613586,431.119843 901.411987,424.811981 
	C909.976440,413.553375 919.339172,402.877869 925.702942,390.093628 
	C927.272888,386.939789 930.725708,383.430634 928.267639,380.198395 
	C925.487305,376.542450 921.071350,378.650757 917.187012,379.763306 
	C888.072876,388.102203 861.631165,401.906036 837.101685,419.387024 
	C826.253784,427.117737 816.488037,436.216431 807.949524,446.569946 
	C801.110657,454.862518 801.242798,460.526031 809.443970,467.526031 
	C816.835938,473.835266 825.293213,478.558472 834.211609,482.339294 
	C853.376770,490.464081 872.488403,498.716003 890.287170,509.594635 
	C898.097534,514.368347 906.062683,519.614136 911.246704,527.104736 
	C919.695618,539.313049 923.344849,557.469971 908.954529,570.669861 
	C898.686584,580.088379 887.154602,587.773743 874.518494,593.484192 
	C860.580261,599.783020 846.466064,605.833923 832.036560,610.869934 
	C812.123047,617.820068 791.940491,624.035645 771.276001,628.535095 
	C761.817383,630.594666 750.735474,626.653137 746.801453,619.178711 
	C744.860291,615.490601 743.564575,611.826782 748.187805,608.718933 
	C749.715027,607.692261 750.499023,605.559998 751.872253,603.572144 
	C761.791077,607.207947 770.958618,602.708496 780.362793,600.296448 
	C793.588745,596.904175 806.221863,591.706665 819.103638,587.272278 
	C834.058838,582.124023 848.749268,576.253418 863.156860,569.740295 
	C873.608826,565.015259 884.084900,560.239807 893.053772,552.825806 
	C900.606445,546.582397 900.809021,543.824280 892.777344,537.961853 
	C886.474731,533.361511 879.805298,529.156189 872.921509,525.482178 
	C859.032043,518.069214 843.981506,513.011414 830.044617,505.841278 
	C817.341370,499.305756 803.507874,493.784668 793.799438,482.639343 
	C784.911438,472.435791 779.158142,460.987152 783.577515,446.613708 
	C785.916077,439.007721 788.744629,431.928680 794.599670,426.282501 
	C796.476990,424.472168 797.811584,422.099060 799.485657,419.861450 
	C797.573730,418.808533 795.710449,418.916992 794.108521,419.626862 
	C781.905518,425.034546 768.818909,427.829651 756.373108,432.508240 
	C746.875793,436.078491 737.032837,438.683685 727.807068,443.034180 
	C723.499512,445.065491 719.973022,447.614594 717.525818,451.849152 
	C709.852844,465.126129 705.523315,479.871857 698.797363,494.059326 
	C723.469666,487.982788 747.592712,480.402252 772.824951,476.474396 
	C772.291992,480.699219 771.024963,483.809021 768.772339,486.616425 
	C771.414124,489.157135 774.018127,486.882111 776.640442,486.987122 
	C776.467529,488.521698 776.313843,489.885590 776.094727,491.830322 
	C767.283264,490.687592 760.812073,496.719269 753.818848,500.372009 
	C734.112061,510.665466 713.319214,518.158813 692.382263,525.022949 
	C683.670288,527.879150 680.354797,533.055359 677.535828,540.393738 
	C672.823425,552.661438 667.805542,564.809998 664.256775,577.491028 
	C664.166931,577.812012 664.064026,578.130188 663.992981,578.455383 
	C663.213501,582.019470 661.763062,586.032349 664.363586,588.973572 
	C667.257812,592.247009 671.131836,590.052551 674.636414,589.067871 
	C694.094116,583.601501 712.087830,574.366455 730.921143,567.299438 
	C740.540588,563.690002 749.850159,559.145569 760.100220,557.391968 
	C761.070618,557.226013 762.612488,556.728149 762.959473,557.149658 
	C767.208435,562.311584 772.303406,558.636963 777.016968,558.656555 
	C777.822937,558.659912 778.629456,558.539612 779.694458,558.876343 
	C774.414490,562.920349 769.744446,567.539612 764.078796,571.172668 
	C751.481079,579.250916 738.936523,587.479004 725.569702,594.140930 
	C710.712402,601.545654 696.222656,609.812256 680.361877,615.134583 
	C666.734192,619.707642 657.900879,616.972534 650.517761,608.264343 
	C643.086548,599.499573 641.357605,589.017944 643.085632,577.769592 
	C645.040771,565.042969 648.744202,552.823181 653.225159,540.807129 
	C655.331848,535.158020 656.819275,529.709961 654.966125,523.419983 
	C653.143494,517.234192 655.842102,512.682495 661.948792,510.251190 
	C667.722107,507.952637 671.249023,504.076996 672.692810,498.121429 
	C674.120422,492.232452 677.531555,486.852173 677.351013,479.518127 
	C673.577454,483.825012 670.506958,487.661469 667.095947,491.166473 
	C650.145264,508.584076 630.654968,522.674255 609.822937,535.082825 
	C595.221497,543.780151 579.494446,549.980530 563.981934,556.669861 
	C561.206299,557.866760 559.874268,559.670044 558.910889,562.301025 
	C552.159729,580.739075 545.827332,599.331177 540.901245,618.328735 
	C539.035095,625.525513 536.206970,632.494568 535.467468,640.038269 
	C535.042969,644.368530 532.976135,648.032227 527.490356,647.579529 
	C525.774841,647.437988 524.899719,649.791321 522.531677,649.100403 
	C521.035583,646.573669 522.882141,642.411133 520.520203,640.480164 
	C516.526184,637.214783 518.260132,633.825073 518.268494,629.859131 
	C518.294495,617.526123 522.200012,606.134644 525.093872,594.454102 
	C527.856628,583.302795 531.288025,572.369568 535.127563,561.558472 
	C536.858215,556.685486 536.753540,551.800537 535.697876,546.869873 
	C535.326965,545.137573 535.139282,543.339844 536.561951,542.212341 
	C545.791504,534.898193 546.840881,523.549561 550.644592,513.625977 
	C557.546997,495.618195 564.041382,477.454071 570.709961,459.356628 
	C571.444946,457.361877 572.508057,455.448181 572.305603,453.480438 
	C571.706116,452.348145 570.874268,452.077728 570.046631,452.185242 
	C562.753296,453.132782 560.551941,448.461426 559.811035,442.183899 
	C559.186646,436.893616 560.483215,431.989532 564.264832,427.872955 
	C573.420532,417.906342 585.043091,411.995056 597.458862,407.319550 
	C612.122620,401.797516 627.358154,399.587219 642.936523,399.791138 
	C651.985168,399.909576 660.833130,401.586456 669.118225,405.410034 
	C676.981995,409.039124 682.870483,414.644714 685.791626,423.016266 
	C687.025513,426.552460 688.809875,429.317871 693.011780,426.565094 
	C707.061768,417.360382 723.061646,413.492188 739.012451,409.346741 
	C758.163940,404.369415 777.374634,399.735596 796.887878,396.362762 
	C801.876953,395.500397 806.645935,397.638519 812.479858,395.827667 
	C809.193665,400.607269 801.938965,397.979279 801.360352,404.282715 
	C803.587708,407.414795 806.739014,403.606873 810.160400,405.910583 
	C802.970398,407.552460 797.591370,412.057465 790.543884,411.724243 
	C790.464661,413.906891 791.071167,415.540833 792.814209,415.407288 
	C799.390198,414.903687 806.031555,415.241241 811.510620,409.944977 
	C828.944275,393.092712 849.919861,381.499451 871.307373,370.568298 
	C884.715393,363.715485 898.942993,359.070953 913.640259,354.503998 
M599.066833,516.520996 
	C615.741577,506.611664 631.134521,495.100494 644.526062,480.956329 
	C654.109497,470.834290 662.396667,459.890564 667.610352,446.877808 
	C671.000793,438.415955 668.755798,433.830383 660.333313,430.303223 
	C657.617920,429.166077 654.790710,429.339722 652.044434,428.697632 
	C637.539062,425.306152 623.292786,427.308960 609.180420,431.188751 
	C606.795837,431.844299 605.127441,433.154175 604.273743,435.642639 
	C599.366882,449.945740 593.502869,463.892365 588.666626,478.234344 
	C583.565857,493.360870 577.737671,508.242218 572.218384,523.227417 
	C571.653748,524.760559 570.686584,526.252686 572.241699,528.303650 
	C581.693176,526.389099 589.916870,521.290771 599.066833,516.520996 
M771.761658,419.194336 
	C773.183105,418.534668 775.107178,419.312866 776.490601,417.330933 
	C771.551514,416.443573 767.961121,419.606110 763.757996,420.197174 
	C766.429321,421.364441 768.650574,419.927948 771.761658,419.194336 
z"/>
<path fill="#000000" opacity="1.000000" stroke="none" 
	d="
M659.870728,267.947571 
	C664.285217,252.012085 669.969849,236.894211 674.552612,221.445129 
	C678.732178,207.355423 685.619690,194.432983 690.729065,180.768784 
	C692.587952,175.797577 693.899353,170.622025 695.472168,165.543289 
	C695.860474,164.289383 696.662720,162.988586 695.447937,161.821976 
	C694.295105,160.714752 693.004089,161.282944 691.716858,161.730103 
	C669.757507,169.357864 647.728088,176.791367 625.870850,184.700592 
	C620.410156,186.676590 615.136169,188.967377 609.323181,189.716675 
	C601.775879,190.689529 597.594666,186.867081 597.845825,179.230408 
	C597.921448,176.930801 597.364563,174.604538 598.557556,171.923050 
	C596.460510,172.274414 596.373901,175.605453 593.703430,174.191498 
	C592.977417,171.567657 594.701843,169.410065 595.866089,167.127243 
	C598.198303,162.554214 600.391479,157.945099 601.575195,152.894287 
	C602.616760,148.449585 600.591431,147.052460 596.551941,147.334015 
	C589.638611,147.815903 583.781799,151.271423 578.245605,154.793335 
	C559.381287,166.794067 542.262512,181.084473 525.763123,196.132935 
	C522.165100,199.414536 519.134399,203.168060 516.330688,207.094543 
	C513.243591,211.417923 513.638550,214.070557 517.633057,217.473633 
	C521.713928,220.950256 526.279236,223.710068 531.122498,225.973114 
	C551.024231,235.272263 571.019165,244.375473 590.832153,253.859253 
	C599.670654,258.089966 608.221130,262.835205 614.688354,270.684845 
	C623.945679,281.920929 622.087341,295.341431 615.529358,307.633911 
	C610.174683,317.670715 601.780396,325.172424 592.570129,331.560211 
	C572.393982,345.553436 550.685425,356.720154 528.130615,366.427948 
	C517.877930,370.840820 507.660645,375.211548 496.816010,377.744110 
	C492.417938,378.771210 487.740936,378.536774 483.052155,377.901703 
	C480.792511,377.595642 478.386841,378.177917 475.818085,377.341217 
	C471.826813,376.041260 470.577423,372.504913 468.250916,369.829346 
	C468.143585,369.705933 467.970856,369.489838 468.011536,369.408661 
	C470.599762,364.246246 465.663727,359.664032 466.943787,354.501587 
	C468.038544,350.086365 468.369995,348.907074 472.579773,344.308258 
	C475.942047,345.173309 479.949127,345.012360 480.355408,350.078308 
	C480.493652,351.802032 482.150238,351.786530 483.537750,351.321533 
	C494.225250,347.739716 505.523865,346.193237 515.855530,341.396942 
	C538.061646,331.088165 560.331421,320.906708 580.667358,307.080170 
	C586.755371,302.940887 592.059692,297.864349 597.026123,292.468262 
	C599.948364,289.293243 600.262695,286.148773 596.301636,283.210388 
	C588.869873,277.697266 580.518982,273.861481 572.058228,270.471893 
	C550.097961,261.674133 528.484863,252.229706 508.386963,239.632278 
	C504.863800,237.423965 502.798889,237.830704 501.350128,242.036163 
	C494.443115,262.085754 485.444824,281.216339 473.939514,298.995392 
	C459.607544,321.142426 443.714386,342.012817 421.907318,357.678162 
	C416.450378,361.598175 410.885529,364.944122 404.762604,367.679810 
	C399.692261,369.945190 394.812378,370.065094 389.775879,368.563019 
	C372.913147,363.534119 365.026764,353.120453 363.849152,334.360352 
	C362.818115,317.934814 365.427063,301.901581 369.040283,285.944305 
	C372.204742,271.968994 376.469666,258.309570 381.605896,245.004578 
	C385.318512,235.387283 386.606445,225.175964 390.781433,215.632172 
	C396.992004,201.435318 406.837311,190.098602 416.648438,178.641434 
	C424.001740,170.054474 431.836365,161.837051 441.266449,155.444138 
	C454.540436,146.445374 469.099274,143.676666 484.401520,148.719101 
	C495.390533,152.340225 501.167755,161.243637 504.243774,172.030334 
	C504.561066,173.143036 504.735474,174.298080 505.080078,175.401016 
	C505.520935,176.811813 505.747498,178.596878 507.401337,179.000458 
	C509.400238,179.488266 510.202576,177.659729 511.230408,176.382599 
	C522.942078,161.830734 537.425720,150.394791 552.521545,139.641998 
	C563.686218,131.689407 575.854004,125.576218 588.154297,119.614914 
	C596.179260,115.725578 604.587036,115.633888 612.971680,116.134079 
	C620.778198,116.599777 626.446411,122.137306 625.822571,132.851089 
	C625.483276,138.678207 624.911438,144.318329 623.445129,149.936920 
	C622.951721,151.827408 622.910950,153.883804 624.185608,156.242722 
	C629.955872,155.884232 635.123474,153.083817 640.416077,151.021347 
	C665.996643,141.052902 692.065308,132.551331 718.323059,124.593079 
	C721.679138,123.575920 725.117432,122.566154 727.627319,119.975006 
	C731.104919,116.384773 735.520691,118.088112 739.384033,118.024315 
	C747.177368,117.895630 754.661316,116.053795 761.912354,113.969505 
	C776.770691,109.698494 791.733154,105.876915 806.785095,102.457092 
	C819.524658,99.562645 832.538574,97.935631 845.409424,94.536331 
	C846.555237,98.161110 844.268921,100.870781 843.896362,104.079247 
	C853.341431,106.527184 862.287537,101.443268 871.416443,102.410789 
	C869.325623,105.251358 865.423279,107.332787 860.515503,107.926895 
	C857.534668,108.287743 854.562012,108.540886 851.867371,110.081207 
	C850.649963,110.777122 849.532104,111.390610 850.410767,113.929604 
	C856.654968,109.121979 864.122559,112.252670 871.772217,109.098572 
	C870.125854,112.723526 867.866211,113.005852 865.885681,113.307816 
	C844.979797,116.495384 825.577515,125.617592 804.789368,128.966919 
	C796.359680,130.325104 787.981262,132.234253 780.294556,135.158508 
	C769.406616,139.300629 758.057739,141.634705 747.188171,145.604218 
	C745.792664,146.113861 744.317993,146.769043 742.885559,146.755783 
	C734.253662,146.675858 730.807190,152.666580 728.694153,159.429825 
	C725.379700,170.038223 721.292297,180.294296 716.892700,190.486160 
	C706.150146,215.371811 696.075684,240.525772 686.801758,266.009918 
	C677.073608,292.742188 666.718323,319.245728 656.903076,345.947021 
	C653.921082,354.059174 651.546753,362.396667 648.432739,370.481079 
	C646.370911,375.833496 643.234436,380.362335 638.959412,384.721649 
	C636.598572,380.540436 638.514465,376.132599 638.096985,372.283478 
	C635.796997,371.786407 635.643921,374.073486 634.131775,373.901062 
	C633.979858,373.677582 633.633789,373.399994 633.669861,373.187134 
	C634.334045,369.268860 635.126587,365.370331 635.698608,361.439514 
	C635.895142,360.088715 636.924500,358.244110 634.220642,357.701324 
	C633.440979,357.544830 633.339600,355.878418 633.802246,354.972534 
	C640.700256,341.468506 641.456848,326.238495 645.915894,312.054626 
	C650.500427,297.471497 655.143494,282.906769 659.870728,267.947571 
M475.168365,171.274216 
	C471.629333,170.996780 468.148254,171.264420 464.909210,172.816223 
	C455.197083,177.469254 446.991913,184.110306 439.436127,191.732864 
	C434.623932,196.587601 433.299255,203.039001 430.440063,208.802872 
	C424.526794,220.723495 418.270386,232.473450 412.297363,244.365036 
	C407.899231,253.121231 408.708313,255.624619 416.819336,261.246918 
	C419.024170,262.775238 421.860870,263.408142 424.008789,266.191437 
	C417.595917,267.351166 411.694275,267.686951 406.497223,264.294312 
	C400.976654,260.690460 400.546661,260.659943 398.120819,266.971436 
	C393.156342,279.887939 388.984741,293.083832 386.798431,306.719696 
	C385.287048,316.146027 383.261322,325.665314 385.317078,335.418427 
	C386.982727,343.320831 392.265594,346.163208 399.173309,342.142426 
	C405.656799,338.368469 411.957031,334.166016 417.426300,329.100250 
	C450.020935,298.910370 473.486115,263.037811 483.999512,219.453995 
	C487.358734,205.528336 489.989075,191.425888 483.503326,177.477478 
	C481.929718,174.093231 480.267181,171.239151 475.168365,171.274216 
M505.666748,371.481781 
	C506.702454,370.870880 508.459869,371.008179 508.100861,367.949738 
	C503.288940,369.870667 498.760895,371.678253 493.202148,373.897308 
	C498.342499,374.888306 501.186493,371.405334 505.666748,371.481781 
z"/>
<path fill="#000000" opacity="1.000000" stroke="none" 
	d="
M147.768097,416.293732 
	C145.767288,420.369232 144.675674,424.787262 141.794388,428.572540 
	C139.651459,431.387787 137.350845,430.780548 135.269058,430.040741 
	C129.704330,428.063141 127.086990,423.329620 127.379700,417.301117 
	C127.775642,409.146698 131.173782,401.839233 133.838074,394.356964 
	C142.989273,368.657166 152.238708,342.991364 161.628159,317.377655 
	C171.650284,290.038025 182.241562,262.901703 191.909546,235.439056 
	C202.291443,205.948486 215.169739,177.390366 224.178421,147.371262 
	C226.333664,140.189453 226.802246,132.112946 231.756317,125.968887 
	C235.373703,121.482552 240.461594,118.670486 246.175644,118.071526 
	C250.528427,117.615250 252.894089,121.692062 256.017029,124.054916 
	C264.420624,130.413254 263.146515,139.397690 262.499329,147.951370 
	C260.736786,171.246201 253.801620,193.620331 249.781754,216.520309 
	C244.784409,244.988617 239.023712,273.359436 237.700989,302.334625 
	C237.354630,309.921997 236.997681,317.558197 238.255554,325.136627 
	C238.531723,326.800415 238.527924,328.657867 240.306625,329.380005 
	C242.352570,330.210632 243.214981,328.263489 244.301620,327.120453 
	C251.161438,319.904724 255.431747,310.958191 260.252716,302.452301 
	C278.219788,270.752258 296.053986,238.980560 314.184753,207.369873 
	C332.079742,176.170258 351.656647,146.020035 369.752167,114.967270 
	C373.547333,108.454582 377.637085,102.291771 382.868469,96.869698 
	C386.825104,92.768845 387.827362,92.660316 391.565460,96.709846 
	C392.332886,97.541191 393.112244,98.025810 394.135834,97.833809 
	C401.013702,96.543671 404.306366,101.061111 406.733704,106.126595 
	C409.987030,112.915680 410.191162,119.682770 407.629272,127.241608 
	C401.655060,144.868454 396.701843,162.843994 391.447174,180.711273 
	C386.479736,197.601974 381.204803,214.420563 376.881561,231.477798 
	C371.406128,253.080963 363.960785,274.076996 357.919128,295.509705 
	C351.608307,317.897308 345.402954,340.298279 339.910370,362.890320 
	C336.972107,374.975769 335.151367,387.338501 332.051056,399.376434 
	C330.560608,405.163635 328.913727,410.893585 327.695221,416.764984 
	C326.921295,420.494171 325.575287,420.707214 319.716949,419.029938 
	C322.380615,410.570038 314.296722,402.969727 318.078644,394.041107 
	C315.576660,396.319183 315.566315,399.965729 312.198792,402.085266 
	C311.643219,397.231201 312.621277,392.854645 313.344910,388.655670 
	C316.672821,369.344452 320.977570,350.221649 325.766724,331.223450 
	C331.164764,309.809753 336.779358,288.448883 342.504395,267.119965 
	C348.367462,245.276855 354.433868,223.487930 360.500610,201.700165 
	C363.218658,191.938751 366.143860,182.234863 369.002014,172.512802 
	C369.466034,170.934448 370.204773,169.412445 369.461456,167.352692 
	C365.468079,170.320847 363.596222,174.758301 361.284088,178.559723 
	C345.891083,203.867416 330.378906,229.095795 315.598145,254.788910 
	C301.980560,278.460052 289.699219,302.873901 275.446808,326.163879 
	C270.530029,334.198395 265.871033,342.492096 258.374847,348.750610 
	C253.624435,352.716583 248.351074,355.384918 242.603088,357.064117 
	C236.249268,358.920288 225.743637,353.896881 221.907150,347.874329 
	C216.698425,339.697601 215.534103,330.368286 214.864563,321.124329 
	C213.817078,306.663147 215.686737,292.278809 217.025909,277.868073 
	C218.534256,261.636932 222.034668,245.725830 223.852997,229.557129 
	C224.443604,224.305359 225.816483,219.135910 226.946167,213.953796 
	C227.295975,212.349152 228.294571,210.781784 226.261353,209.655304 
	C224.630173,209.629089 224.427933,210.899796 224.005920,211.959976 
	C212.931900,239.779694 201.799164,267.574036 191.421448,295.667755 
	C182.143814,320.783386 172.589447,345.797729 162.979797,370.788544 
	C161.890091,373.622437 161.192673,376.506409 160.837570,379.381561 
	C159.473068,390.429901 151.635498,399.179352 149.974731,410.858765 
	C149.098877,413.143158 148.433487,414.718445 147.768097,416.293732 
z"/>
<path fill="#000000" opacity="1.000000" stroke="none" 
	d="
M223.838394,586.827393 
	C229.690475,580.910889 235.707947,575.610291 238.653717,567.818054 
	C239.867188,564.608154 239.096481,562.809448 236.075653,561.500549 
	C226.984192,557.561462 217.371582,555.854370 207.657852,554.284973 
	C182.518692,550.223206 156.848907,551.856506 131.804367,547.145081 
	C119.345825,544.801392 108.569847,539.453857 104.344398,526.299500 
	C102.050354,519.157837 102.642982,512.187988 107.015450,505.424500 
	C122.789658,481.024445 144.366760,462.296692 165.965408,443.442871 
	C181.748566,429.665436 199.154297,418.295441 217.143524,407.907166 
	C228.277100,401.477875 240.077682,395.993988 253.413696,394.606567 
	C269.729919,392.909149 277.652374,402.297943 279.008484,416.491425 
	C280.237274,429.352112 275.276733,440.631470 266.001831,450.254913 
	C261.700806,454.717499 255.482910,456.491730 251.299683,462.586182 
	C256.777557,461.843445 260.527771,459.127563 264.461884,457.176727 
	C287.875885,445.566284 311.294586,433.845337 335.969574,425.220001 
	C361.059235,416.449677 386.282593,407.888611 412.358643,402.297272 
	C415.753418,401.569366 419.308105,401.631378 422.537445,400.013641 
	C423.297089,399.633118 424.732635,399.674164 425.386719,400.157745 
	C430.498322,403.936829 436.551971,402.309814 442.172058,403.602020 
	C442.343475,405.393311 444.630798,407.727356 441.032623,409.243988 
	C443.416595,410.601624 444.720123,408.002869 446.885345,408.715881 
	C446.254425,411.247375 444.098541,411.893097 442.183441,412.514893 
	C424.044189,418.404205 406.500732,425.926666 388.265137,431.628326 
	C376.128845,435.422882 364.690613,441.441498 352.913391,446.401520 
	C351.052429,447.185303 350.682587,448.846680 350.267365,450.377838 
	C345.032990,469.678772 337.095581,488.049652 330.740051,506.968170 
	C324.761749,524.763794 317.070526,541.976562 310.731415,559.660278 
	C302.143585,583.617188 292.602356,607.251770 286.107910,631.942322 
	C284.261292,638.962524 281.786011,645.776001 282.066193,653.168274 
	C282.099457,654.045776 281.666931,654.671875 281.059601,655.326721 
	C278.547119,658.035645 271.553223,657.690918 269.389313,654.667664 
	C268.723389,653.737244 268.282562,652.719238 267.167053,652.070374 
	C263.330292,649.838928 262.761841,646.548584 263.485870,642.282288 
	C266.557465,624.182983 272.492371,606.831848 277.244324,589.185608 
	C281.040436,575.088928 285.761444,561.208984 290.703156,547.459778 
	C300.479004,520.260620 308.893341,492.570831 320.007111,465.852661 
	C320.628265,464.359375 321.089203,462.799438 321.574341,461.414276 
	C319.376495,459.370453 317.778046,461.020569 316.266083,461.680511 
	C302.536072,467.673584 289.267456,474.640076 275.736145,481.040741 
	C264.046539,486.570190 253.340714,494.045258 241.108994,498.419525 
	C232.680389,501.433716 227.438278,498.197083 225.939621,489.403229 
	C224.731308,482.313110 226.866898,477.655151 232.954483,473.893188 
	C236.914719,471.445862 240.823273,468.914917 244.721375,466.442749 
	C244.998413,463.571533 240.442886,464.500244 240.855499,460.579407 
	C241.181366,457.482788 242.514648,455.420441 243.837524,453.156982 
	C249.322983,443.771271 252.729645,433.613281 255.398682,423.158813 
	C255.797546,421.596436 255.593628,420.136688 254.251465,419.088226 
	C252.560684,417.767426 250.728928,418.205902 249.068497,419.069122 
	C242.569611,422.447845 236.019455,425.744812 229.662735,429.377319 
	C197.889481,447.533844 170.327866,471.059387 144.599731,496.824310 
	C138.618332,502.814301 133.454163,509.626190 127.987961,516.122192 
	C125.472488,519.111572 126.116508,521.110657 130.009720,522.224487 
	C137.585129,524.391724 145.442535,525.030457 153.165298,525.507507 
	C173.276962,526.750061 193.274719,528.597229 212.982224,532.881287 
	C223.743134,535.220459 234.203369,538.698914 243.955795,543.779846 
	C259.919952,552.097107 264.390045,571.711426 254.116837,587.703552 
	C248.235535,596.858704 240.761673,604.806946 232.309448,611.533264 
	C212.899338,626.979858 192.171234,640.599792 171.547577,654.370544 
	C148.125122,670.010132 123.604523,683.701538 98.766823,696.877686 
	C92.849510,700.016724 83.206947,694.726501 82.410271,687.981628 
	C82.142227,685.712158 82.090561,683.403320 82.123390,681.115112 
	C82.202530,675.598816 84.914879,673.019592 90.550163,672.184814 
	C93.771706,671.707581 96.674591,669.064087 99.715721,667.386475 
	C122.313797,654.920349 144.884430,642.389832 166.526489,628.309021 
	C186.210037,615.502686 205.380188,601.948792 223.838394,586.827393 
M271.561981,623.499329 
	C271.193451,625.694946 268.657898,627.583069 270.717804,630.649536 
	C274.068329,623.301270 275.387390,615.941528 276.189941,608.416016 
	C273.924377,613.012451 274.376587,618.464600 271.561981,623.499329 
z"/>
<path fill="#000000" opacity="1.000000" stroke="none" 
	d="
M328.573944,618.721436 
	C330.528564,609.665771 334.051422,601.548889 336.830078,593.188721 
	C338.084869,589.413452 338.593506,586.011780 336.569489,581.838074 
	C332.501190,573.448914 336.374023,565.282166 346.058197,560.971008 
	C349.266449,559.542786 350.530182,557.542603 351.473572,554.531494 
	C357.344269,535.792786 363.961761,517.325378 371.844879,499.324341 
	C373.977234,494.455139 375.914185,489.500427 377.948395,484.588104 
	C378.461060,483.350159 379.178986,482.070892 377.868958,480.936615 
	C376.628357,479.862457 375.340424,480.535095 374.145142,481.117035 
	C370.108795,483.082184 366.124725,485.157776 362.056244,487.052887 
	C358.721588,488.606140 355.171173,490.144196 351.753448,487.555969 
	C349.063965,485.519257 346.774017,476.477875 348.206909,473.548401 
	C350.118011,469.641144 352.717010,466.292969 356.648682,463.963562 
	C378.373566,451.091949 401.560791,441.647064 425.451050,433.650696 
	C437.388702,429.654999 449.568146,426.712219 462.000641,426.338928 
	C475.260101,425.940735 488.411591,427.260468 500.024963,435.521301 
	C509.274231,442.100464 511.037689,451.037842 509.832062,461.006805 
	C508.793274,469.596100 504.576508,476.952209 499.010742,483.679169 
	C485.810638,499.633148 470.011108,512.543518 452.842438,523.868164 
	C433.537842,536.601685 414.108856,549.146912 394.702637,561.725708 
	C392.754791,562.988281 390.585266,563.907288 388.527649,565.002686 
	C386.887146,565.875854 385.183838,566.764343 385.271240,568.994141 
	C385.364807,571.381409 387.390167,571.789062 389.090454,572.331604 
	C397.947052,575.158020 406.829071,577.904785 415.695984,580.699158 
	C428.084045,584.603149 440.439911,588.859436 451.675781,595.295166 
	C459.053955,599.521240 465.389862,605.655701 471.877411,611.297913 
	C474.042297,613.180725 475.932800,616.390137 473.063904,619.142090 
	C470.836334,621.278809 471.125671,623.167542 472.623077,625.528076 
	C469.279205,626.576477 467.086456,624.691589 464.737152,623.744263 
	C437.599884,612.801147 410.731171,601.134949 382.455658,593.270874 
	C377.018890,591.758728 371.506775,590.512268 366.090698,588.932983 
	C362.923676,588.009644 361.237762,588.698425 360.073273,592.014038 
	C354.616089,607.552185 348.501282,622.859741 344.154358,638.781372 
	C342.745544,643.941589 342.965210,649.233948 339.960754,654.398865 
	C337.330505,658.920471 335.086609,659.350525 330.917603,658.126770 
	C330.311951,654.806030 329.354889,651.654663 325.417816,649.906860 
	C322.834259,648.759705 321.889160,646.381348 322.975159,642.904114 
	C325.398590,635.144409 325.952667,626.895569 328.573944,618.721436 
M421.271362,516.730591 
	C437.451385,506.453400 453.007141,495.326294 467.354187,482.583527 
	C473.329407,477.276428 479.328857,471.934296 483.874146,465.285187 
	C487.605591,459.826660 486.327118,456.315216 480.334747,454.155487 
	C476.651031,452.827820 472.799408,452.754791 469.008728,452.575500 
	C449.619751,451.658234 431.688904,457.831970 413.828339,464.242310 
	C411.784821,464.975739 410.894989,466.682281 410.113647,468.644104 
	C406.602631,477.459137 402.447845,485.987732 398.487610,494.606659 
	C392.392609,507.871735 386.604767,521.300537 382.206360,535.259216 
	C381.747772,536.714539 380.517487,538.546692 382.402832,539.803467 
	C383.949890,540.834717 385.251068,539.408997 386.456848,538.655457 
	C397.882568,531.514771 409.274780,524.320374 421.271362,516.730591 
z"/>
<path fill="#000000" opacity="1.000000" stroke="none" 
	d="
M688.531555,678.891235 
	C679.878296,679.749939 671.632080,680.498169 663.318298,680.484375 
	C649.345825,680.461182 635.614807,683.276733 621.707214,684.302368 
	C604.477661,685.572998 587.394104,688.848450 570.254517,691.307495 
	C538.791504,695.821594 507.702667,702.336853 476.728485,709.343872 
	C451.779266,714.987915 427.119934,721.806274 402.472290,728.680847 
	C380.869232,734.706177 359.487793,741.413208 338.145447,748.239197 
	C308.225067,757.808594 278.885376,768.999390 249.965134,781.277283 
	C244.152145,783.745178 238.312500,786.153564 232.442719,788.482422 
	C230.440308,789.276855 228.168808,791.683228 226.198380,789.003418 
	C223.967819,785.969971 220.051727,783.386108 222.160614,778.563232 
	C223.121857,776.365051 224.565002,774.726196 226.510010,773.262085 
	C241.980850,761.617065 259.884521,754.683105 277.289520,746.761292 
	C301.390381,735.792053 325.944885,725.933167 351.055481,717.577087 
	C378.361908,708.490417 406.188354,701.148193 434.019958,693.820618 
	C465.875702,685.433533 498.205994,679.362915 530.516602,673.194458 
	C558.754028,667.803650 587.258057,664.288208 615.864990,661.324646 
	C636.703247,659.165955 657.557312,657.225769 678.442017,655.888000 
	C702.517639,654.345825 726.642273,653.271790 750.797485,653.720703 
	C770.901855,654.094421 791.009705,654.288147 811.112854,654.711365 
	C815.275085,654.799011 819.423401,655.546875 823.572205,656.770813 
	C815.713989,659.836304 807.030945,656.765930 799.303711,660.966797 
	C810.233337,663.486389 821.210388,665.470093 832.455872,666.481140 
	C817.821533,669.759888 803.026367,668.059631 788.094299,667.111572 
	C789.602295,672.878052 788.635437,673.987549 783.374939,672.910217 
	C777.502075,671.707520 771.921204,674.095337 766.104431,673.952209 
	C759.203552,673.782410 752.241516,674.071533 745.385620,674.856567 
	C741.302979,675.323975 737.165161,675.258667 733.169739,675.901001 
	C718.501282,678.259155 703.565308,676.307190 688.531555,678.891235 
M756.746765,668.294434 
	C754.280090,669.184082 751.834351,668.177612 749.377502,668.214417 
	C745.478760,668.272827 745.327820,668.325012 741.708862,670.833435 
	C756.207031,670.721863 769.894653,670.016846 783.528137,668.025574 
	C774.833496,667.075867 766.201355,668.918457 756.746765,668.294434 
M781.331787,659.697632 
	C779.229919,660.735962 776.692627,656.879089 774.735840,660.223572 
	C778.908386,663.757263 789.146423,663.487305 793.027283,659.568054 
	C789.213684,659.568054 785.624207,659.568054 781.331787,659.697632 
M731.239563,670.372314 
	C727.245972,672.921265 722.490234,668.606018 718.579773,671.976929 
	C725.335144,671.767090 732.161743,672.401062 738.716614,670.013306 
	C736.446838,670.013306 734.177063,670.013306 731.239563,670.372314 
z"/>
<path fill="#000000" opacity="1.000000" stroke="none" 
	d="
M648.720764,725.451111 
	C645.475830,728.875122 641.002075,729.972229 637.091736,730.992310 
	C629.035095,733.094055 620.591919,733.715088 612.306641,734.937744 
	C611.829590,735.008118 611.020325,734.847168 610.907532,735.069153 
	C608.148682,740.498901 603.825378,737.595337 599.731567,737.708313 
	C594.155029,737.862061 588.744263,740.080688 583.553345,742.370789 
	C582.959412,742.632874 582.268616,742.871033 582.526367,743.772339 
	C583.694641,747.857483 580.168396,748.036377 577.989990,748.648010 
	C569.682373,750.980835 561.100952,752.447510 552.952393,755.212097 
	C541.201294,759.198853 528.889526,761.302612 517.504639,766.622314 
	C511.419434,769.465759 504.505066,770.506165 498.011414,772.510986 
	C488.811584,775.351013 479.937958,779.021973 471.007965,782.632751 
	C460.116058,787.036865 448.986786,790.947327 437.971924,795.108337 
	C421.298553,801.406799 405.560150,809.780457 389.179596,816.702332 
	C383.515747,819.095764 378.166840,822.283081 372.333496,824.111572 
	C364.795898,826.474243 357.258911,828.965271 349.397522,830.223633 
	C346.026703,830.763123 342.731537,831.775269 338.522583,832.783447 
	C341.015625,828.327087 345.329742,827.671326 348.500702,824.542419 
	C345.353729,825.244385 345.118347,821.598633 342.826813,821.538513 
	C340.682404,821.482239 339.211060,824.714722 336.475128,823.164856 
	C335.592987,820.474976 337.674530,819.673706 339.299744,818.660217 
	C349.312347,812.416199 359.716461,806.944824 370.272369,801.636292 
	C380.780640,796.351746 391.014404,790.509888 401.768250,785.662598 
	C418.436340,778.149353 435.248169,770.972595 452.270630,764.318481 
	C470.536560,757.178406 488.980927,750.411743 507.875854,745.187256 
	C521.953003,741.294922 536.505127,739.153442 550.692505,735.617188 
	C566.813965,731.598877 583.178955,729.119690 599.583618,726.848755 
	C605.816467,725.986023 612.177429,725.799377 618.482178,725.769409 
	C626.156067,725.732910 633.452942,724.281067 640.893066,722.421875 
	C645.899658,721.170715 651.918640,720.548340 657.531555,724.623047 
	C654.137817,725.631897 651.084351,720.766113 648.720764,725.451111 
M461.475922,781.213745 
	C459.298859,781.313110 457.589020,782.197449 455.826660,784.818359 
	C459.606079,783.461243 462.561035,782.400269 465.515961,781.339233 
	C465.465729,781.141296 465.415466,780.943298 465.365234,780.745361 
	C464.290802,780.884033 463.216400,781.022644 461.475922,781.213745 
z"/>
<path fill="#000000" opacity="1.000000" stroke="none" 
	d="
M483.835327,581.090149 
	C494.009613,544.312317 506.083099,508.579865 518.320129,472.887787 
	C522.796814,459.830566 527.427551,446.869598 532.976685,434.241486 
	C535.319153,428.910645 538.453369,424.053986 542.525024,419.144501 
	C547.617554,424.713013 554.975830,428.564484 553.149475,437.248016 
	C552.133667,442.077545 550.880432,446.934357 549.533936,451.722748 
	C544.219177,470.622253 537.104614,488.920807 530.802490,507.490906 
	C520.986877,536.413818 510.455872,565.102417 502.067474,594.492859 
	C500.291931,600.713989 499.066315,607.092957 497.621063,613.406982 
	C496.426270,618.626831 495.073029,619.538147 489.948456,618.457581 
	C483.369598,617.070374 479.836304,612.621033 479.756958,606.009583 
	C479.655914,597.589600 481.973877,589.594116 483.835327,581.090149 
z"/>
<path fill="#000000" opacity="1.000000" stroke="none" 
	d="
M794.494873,271.388092 
	C808.628601,263.560883 822.401550,255.836014 836.277161,248.300064 
	C849.556213,241.088028 862.868530,233.910309 877.034058,228.531967 
	C879.408081,227.630615 882.027039,227.374466 884.795105,226.762192 
	C884.375549,229.017120 883.090576,229.665833 881.861145,229.974487 
	C870.559570,232.811676 861.756348,240.654449 851.300293,245.123505 
	C845.085571,247.779739 839.073364,251.116684 833.461121,254.499405 
	C827.313049,258.205139 820.173157,260.951050 815.236877,266.584473 
	C812.132141,270.127594 807.668396,269.511841 803.802124,270.638489 
	C802.414307,271.042877 800.688049,270.891235 799.612549,271.891998 
	C794.468933,276.678101 787.802368,279.007416 782.064087,282.881927 
	C772.949463,289.036255 762.574829,293.328278 753.481018,299.508606 
	C741.816650,307.435944 730.260864,315.508057 718.192078,322.814392 
	C716.353577,323.927460 714.319580,324.713104 712.410339,325.715515 
	C710.830078,326.545135 708.954712,327.163391 707.951111,325.474091 
	C706.756348,323.462921 708.883667,322.594574 710.233337,321.765228 
	C719.728455,315.930298 729.421997,310.401031 738.734985,304.290710 
	C756.704407,292.500885 775.755554,282.574890 794.494873,271.388092 
z"/>
<path fill="#000000" opacity="1.000000" stroke="none" 
	d="
M147.745972,416.690491 
	C148.433487,414.718445 149.098877,413.143158 149.914642,411.235107 
	C151.729889,416.183960 149.263214,420.705475 147.108154,425.330963 
	C147.313385,422.583038 147.518631,419.835144 147.745972,416.690491 
z"/>
</svg>
